<?xml version="1.0" encoding="UTF-8"?>
<svg version="1.1" xmlns="http://www.w3.org/2000/svg" width="400" height="400">
<path d="M0 0 C23.3737073 -0.69084849 45.07087568 7.26740914 62.546875 22.71875 C64.09936202 24.18655591 65.64144089 25.66546444 67.171875 27.15625 C67.94917969 27.88328125 68.72648437 28.6103125 69.52734375 29.359375 C75.51539336 35.08246666 75.51539336 35.08246666 76.171875 39.15625 C73.859375 41.21875 73.859375 41.21875 71.171875 43.15625 C67.77397359 42.0236162 67.45743228 41.44841307 65.546875 38.59375 C52.84983141 21.22047816 30.64821182 12.9671238 10.171875 9.15625 C9.470625 9.02476562 8.769375 8.89328125 8.046875 8.7578125 C-8.26868622 6.24249681 -25.06259772 8.95841108 -39.828125 16.15625 C-32.48838993 24.65897126 -22.72320571 30.43770779 -11.828125 33.15625 C-11.10882813 33.33800781 -10.38953125 33.51976562 -9.6484375 33.70703125 C8.61323137 36.61574582 26.48497777 32.81617369 43.03515625 25.1328125 C46.171875 24.15625 46.171875 24.15625 48.9765625 24.8984375 C51.12976677 26.13212393 52.63306912 27.21249521 54.171875 29.15625 C54.171875 29.81625 54.171875 30.47625 54.171875 31.15625 C32.83637149 41.7933473 10.13662197 49.16404909 -13.703125 42.46875 C-27.19842721 37.80945947 -40.32140153 28.16969694 -46.828125 15.15625 C-45.828125 12.15625 -45.828125 12.15625 -42.609375 10.47265625 C-41.18883061 9.87230713 -39.76111782 9.28874736 -38.328125 8.71875 C-37.57144531 8.41308105 -36.81476563 8.10741211 -36.03515625 7.79248047 C-24.45073997 3.2759942 -12.40232694 0.68521143 0 0 Z " fill="#F6C525" transform="translate(122.828125,164.84375)"/>
<path d="M0 0 C-2.00651076 5.56173613 -5.22779451 9.51250604 -9 14 C-9.55300781 14.68578125 -10.10601562 15.3715625 -10.67578125 16.078125 C-18.3861853 24.7630147 -31.38176564 31.23452336 -43 32 C-69.31070246 33.49781657 -100.8538447 23.59138923 -121 6 C-121 5.01 -121 4.02 -121 3 C-119.25 1.25 -119.25 1.25 -117 0 C-113.60267446 0.49056209 -110.78074245 2.00725058 -107.75 3.5625 C-106.85796875 4.01753906 -105.9659375 4.47257812 -105.046875 4.94140625 C-104.37140625 5.29074219 -103.6959375 5.64007813 -103 6 C-101.96552734 4.88818359 -101.96552734 4.88818359 -100.91015625 3.75390625 C-93.32245916 -3.8124696 -82.20038639 -8.32310302 -72 -11 C-71.19046875 -11.22429687 -70.3809375 -11.44859375 -69.546875 -11.6796875 C-46.66119951 -16.93331741 -19.99247611 -12.0370825 0 0 Z M-96 10 C-93.86234439 12.37221549 -92.0581598 13.59404981 -89.078125 14.71875 C-88.30758789 15.00999756 -87.53705078 15.30124512 -86.74316406 15.60131836 C-85.92041992 15.8978833 -85.09767578 16.19444824 -84.25 16.5 C-83.39889648 16.80752197 -82.54779297 17.11504395 -81.67089844 17.43188477 C-62.68930867 24.09605017 -43.67550073 25.59815597 -24.86328125 17.6796875 C-17.10444808 13.71911157 -8.86387637 8.56195163 -6 0 C-8.54013909 -0.8175507 -11.08193231 -1.62915186 -13.625 -2.4375 C-14.33785156 -2.66759766 -15.05070312 -2.89769531 -15.78515625 -3.13476562 C-42.7936195 -11.68331592 -72.26028466 -3.95482397 -96 10 Z " fill="#F6C526" transform="translate(324,178)"/>
<path d="M0 0 C4.44182774 1.48730884 6.15327877 4.90251178 8.375 8.75 C8.7671167 9.4195874 9.1592334 10.0891748 9.56323242 10.77905273 C21.48968194 31.57758732 28.33999832 56.46884432 22.5 80.3125 C19.12149368 92.71029946 12.73857505 106.35976049 3 115 C-1 115 -1 115 -2.640625 113.7421875 C-17.79660285 96.15831029 -23.65195074 74.97964992 -22 52 C-19.87547287 34.69715015 -12.61407565 12.61407565 0 0 Z M0 19 C-12.17244694 34.99986582 -16.63964318 57.42158865 -14.28466797 77.01953125 C-12.42173625 89.98016769 -7.27233453 103.09149821 0 114 C4.37329967 112.54223344 5.42160796 109.19610597 7.4375 105.3125 C7.83710938 104.54953613 8.23671875 103.78657227 8.6484375 103.00048828 C18.50735815 83.5695254 19.46255373 62.28808212 12.93359375 41.625 C10.03378165 33.66247965 6.17529174 26.35188257 2 19 C1.34 19 0.68 19 0 19 Z " fill="#F6C525" transform="translate(200,40)"/>
<path d="M0 0 C2.31 1.65 4.62 3.3 7 5 C5.007945 9.67699869 1.53100137 12.90205049 -1.90625 16.5625 C-3.72572225 18.68069157 -4.91458493 20.45163418 -6 23 C-5.401875 23.20238281 -4.80375 23.40476563 -4.1875 23.61328125 C2.88079525 28.09407556 5.2301433 42.74051346 7.23828125 50.52734375 C10.67980489 66.21716178 9.5152404 81.75519338 1.89453125 96.08984375 C-1.47864834 101.2713258 -5.64348476 105.62626533 -10 110 C-20.24327686 105.58400953 -25.04039209 94.17006899 -29.03515625 84.4921875 C-34.78567056 67.42787061 -30.93333887 48.40938447 -23.1875 32.75 C-16.9764737 20.75881141 -9.59083456 9.59083456 0 0 Z M-9 25 C-9 28 -9 28 -9 28 Z M-11 28 C-21.36157835 45.73037073 -26.68649254 63.94710262 -21.4375 84.375 C-19.14693279 91.38727794 -15.74415229 97.66859641 -12 104 C-6.96590423 102.32196808 -5.34343288 97.54576902 -3 93 C-0.4568656 87.13799523 1.53388437 81.40908989 2 75 C2.07734375 73.96746094 2.07734375 73.96746094 2.15625 72.9140625 C2.79649343 56.85462306 -2.81482307 42.0709715 -10 28 C-10.33 28 -10.66 28 -11 28 Z " fill="#F6C525" transform="translate(211,190)"/>
<path d="M0 0 C-0.85758522 13.07817462 -6.02086373 26.20703376 -15.77734375 35.27734375 C-30.390949 46.60352989 -46.77490487 50.30151812 -65 50 C-62.10397289 35.76120005 -55.54204706 23.02452839 -45 13 C-44.41476563 12.41863281 -43.82953125 11.83726562 -43.2265625 11.23828125 C-31.60259797 0.40561947 -15.28479142 -2.40272289 0 0 Z M-41.2265625 17.859375 C-47.56920793 24.67782797 -51.70075834 33.03068104 -54 42 C-36.32113855 40.03854968 -21.73842177 34.91969938 -10 21 C-5.4537483 14.77620127 -2.81103358 8.46654196 -1 1 C-16.55635712 1 -30.242075 6.9242601 -41.2265625 17.859375 Z " fill="#F5C527" transform="translate(167,218)"/>
<path d="M0 0 C11.22798846 9.11862077 19.43993013 24.70540633 21 39 C2.85871939 40.01832552 -13.95560194 34.63100744 -28.0859375 23.33203125 C-35.96138409 16.25619897 -40.50671765 6.16492036 -43 -4 C-43.07403678 -6.33215844 -43.09515886 -8.66860788 -43 -11 C-27.29426724 -14.10793201 -12.59212787 -9.39919529 0 0 Z M-42 -10 C-40.90232281 -0.52006065 -35.19512331 9.658286 -28 16 C-15.76118249 25.68145266 -4.36240698 29.42436851 11 31 C6.22371434 16.11911001 -1.83718416 4.44138316 -15.5859375 -3.4921875 C-23.72161959 -7.52424108 -32.9008355 -10 -42 -10 Z " fill="#F6C526" transform="translate(276,229)"/>
<path d="M0 0 C-1.41179239 14.68264087 -10.37955831 29.54409903 -21.37109375 39.05078125 C-31.77952997 46.82796479 -42.51190253 50.19383999 -55.3125 50.0625 C-56.56643555 50.05573242 -56.56643555 50.05573242 -57.84570312 50.04882812 C-59.89716649 50.03710548 -61.94859273 50.01917203 -64 50 C-64.42641292 37.33395704 -58.57679983 25.14009766 -50.0625 15.91015625 C-36.14501352 3.02066593 -18.27962475 -0.4741113 0 0 Z M-50.63671875 24.375 C-56.72460755 31.13708475 -61.57588861 38.92128989 -63 48 C-50.09952402 48.87460854 -37.18132576 44.01566129 -27.3046875 35.7421875 C-21.70394195 30.40894025 -17.58152665 24.83208713 -14 18 C-13.38125 16.88625 -12.7625 15.7725 -12.125 14.625 C-10.73738713 11.86322247 -10.73738713 11.86322247 -11 8 C-25.66917738 7.26370924 -40.24236716 14.56087537 -50.63671875 24.375 Z " fill="#F6C526" transform="translate(297,102)"/>
<path d="M0 0 C17.64331498 -0.91258526 34.49769146 2.47105798 48.3125 14.25 C58.75381191 24.27231865 64.37060944 35.49254757 65 50 C47.09461155 50.73083218 32.17653112 48.44415063 18.375 35.9375 C9.22536908 26.10604562 2.33070509 13.23160702 0 0 Z M11 8 C15.00715783 22.55231003 23.82770525 34.51201502 37 42 C44.41483152 45.34055855 51.5994411 48.18508297 59.8125 48.0625 C60.60269531 48.05347656 61.39289063 48.04445312 62.20703125 48.03515625 C63.09455078 48.01775391 63.09455078 48.01775391 64 48 C61.62561427 40.52766844 58.7285768 34.26536426 54 28 C53.38125 27.17242187 52.7625 26.34484375 52.125 25.4921875 C43.16012512 14.97823497 29.49830777 9.42873084 16 8 C14.33352727 7.97457531 12.66634407 7.96720969 11 8 Z " fill="#F5C528" transform="translate(102,102)"/>
<path d="M0 0 C2.6875 -0.5 2.6875 -0.5 6 0 C8.09856495 2.69046788 9.47796753 4.98202704 11 8 C11.29616211 8.5784668 11.59232422 9.15693359 11.89746094 9.75292969 C13.97584664 13.81551443 15.99017696 17.90153734 18 22 C18.33 14.74 18.66 7.48 19 0 C20.65 0 22.3 0 24 0 C24.07418046 4.35990873 24.12861544 8.71948279 24.16479492 13.07983398 C24.17987768 14.56297199 24.20034689 16.04606544 24.22631836 17.52905273 C24.26272616 19.66140745 24.27973073 21.79317235 24.29296875 23.92578125 C24.3086792 25.20880127 24.32438965 26.49182129 24.34057617 27.8137207 C24 31 24 31 22.609375 32.94946289 C21 34 21 34 18.95703125 33.8828125 C12.16004246 30.81670578 7.86014258 16.28109743 5 10 C4.67 17.59 4.34 25.18 4 33 C2.35 33 0.7 33 -1 33 C-1.02469081 28.6217488 -1.04285557 24.24353433 -1.05493164 19.86523438 C-1.05996514 18.37531834 -1.06679242 16.88540726 -1.07543945 15.39550781 C-1.08754805 13.25584696 -1.09323807 11.11625132 -1.09765625 8.9765625 C-1.10289307 7.68830566 -1.10812988 6.40004883 -1.11352539 5.07275391 C-1 2 -1 2 0 0 Z " fill="#F5C529" transform="translate(296,310)"/>
<path d="M0 0 C4.63197689 5.210974 5.56101617 9.73498261 5.34765625 16.5625 C4.63352816 22.08295084 2.37275702 25.18541292 -2.0625 28.625 C-6.68944523 31.18458672 -10.77074362 31.92113451 -16 31.25 C-21.25966171 29.49994981 -25.04000509 27.03153024 -28 22.25 C-30.43042348 17.15768413 -30.32416988 12.63366877 -29 7.25 C-26.54279888 2.4266052 -23.72560474 -0.14609535 -19 -2.75 C-12.5498779 -4.53156451 -5.74160261 -3.34926819 0 0 Z M-22.875 6.9375 C-24.67442716 10.63632251 -24.52633309 14.21958634 -24 18.25 C-22.27158115 22.43459301 -20.15177657 24.45718739 -16 26.25 C-10.96443974 26.78952431 -8.05645834 26.29234376 -4 23.25 C-0.75521696 20.46875739 -0.09264641 18.23205195 0.3125 13.9375 C-0.06431041 9.49113718 -1.09773378 7.61051878 -4 4.25 C-11.78726348 -0.72059371 -16.25193216 0.97673894 -22.875 6.9375 Z " fill="#F6C427" transform="translate(233,312.75)"/>
<path d="M0 0 C3.94742812 2.96548083 5.69531888 6.3602636 7.1328125 10.9921875 C7.71892706 16.46259004 6.83308096 20.20138862 4.1328125 24.9921875 C-0.28439627 29.74015345 -3.70267843 31.75335663 -10.1796875 32.2421875 C-15.73464751 31.86558004 -19.43760178 30.19939322 -23.6796875 26.6171875 C-27.54383615 21.98020912 -28.28012101 18.11712312 -28.11328125 12.19921875 C-27.57148254 7.3402303 -25.50447105 4.62947105 -22.1171875 1.2421875 C-15.02879546 -3.66516083 -7.64173997 -4.12462116 0 0 Z M-20.6796875 6.6796875 C-22.39838199 10.02661888 -22.97497904 13.26978623 -22.8671875 16.9921875 C-21.58204236 20.9232197 -20.24667038 22.66445228 -17.1171875 25.3671875 C-13.25637445 27.29759402 -11.13286764 27.60157038 -6.8671875 26.9921875 C-2.81307114 25.04309309 -1.17587292 23.52989759 1.0703125 19.6171875 C2.50972445 14.70625261 1.98332743 11.91703707 -0.0546875 7.3046875 C-2.83257039 3.76049209 -5.93981779 2.28129296 -10.3671875 1.6171875 C-14.49269405 2.23601348 -17.63165459 3.84186375 -20.6796875 6.6796875 Z " fill="#F5C528" transform="translate(65.8671875,312.0078125)"/>
<path d="M0 0 C3.67629949 3.5820354 4.89033728 6.52185845 5.11352539 11.56542969 C5.10828857 12.50805664 5.10305176 13.45068359 5.09765625 14.421875 C5.09443359 15.44667969 5.09121094 16.47148437 5.08789062 17.52734375 C5.07951172 18.59082031 5.07113281 19.65429688 5.0625 20.75 C5.05798828 21.82894531 5.05347656 22.90789062 5.04882812 24.01953125 C5.03705727 26.67974383 5.02061399 29.33984365 5 32 C3.02 32 1.04 32 -1 32 C-1 27.38 -1 22.76 -1 18 C-4.63 18 -8.26 18 -12 18 C-12 16.35 -12 14.7 -12 13 C-8.37 13 -4.74 13 -1 13 C-1.66 10.36 -2.32 7.72 -3 5 C-5.85078091 4.23283149 -5.85078091 4.23283149 -9 4 C-10.79234368 5.06145758 -10.79234368 5.06145758 -12 7 C-12.50545868 9.70484875 -12.50545868 9.70484875 -12.51171875 12.76171875 C-12.56489258 14.43911133 -12.56489258 14.43911133 -12.61914062 16.15039062 C-12.64169922 17.31763672 -12.66425781 18.48488281 -12.6875 19.6875 C-12.72166016 20.86634766 -12.75582031 22.04519531 -12.79101562 23.25976562 C-12.87357925 26.17308225 -12.94270322 29.08609466 -13 32 C-14.98 32 -16.96 32 -19 32 C-19.08776185 28.31265225 -19.14064603 24.62557653 -19.1875 20.9375 C-19.22520508 19.37999023 -19.22520508 19.37999023 -19.26367188 17.79101562 C-19.32152518 11.71641845 -18.99125263 7.3363366 -16 2 C-11.13009324 -2.71281299 -5.9807054 -2.50526469 0 0 Z " fill="#F4C529" transform="translate(153,311)"/>
<path d="M0 0 C3.67629949 3.5820354 4.89033728 6.52185845 5.11352539 11.56542969 C5.10828857 12.50805664 5.10305176 13.45068359 5.09765625 14.421875 C5.09443359 15.44667969 5.09121094 16.47148437 5.08789062 17.52734375 C5.07951172 18.59082031 5.07113281 19.65429688 5.0625 20.75 C5.05798828 21.82894531 5.05347656 22.90789062 5.04882812 24.01953125 C5.03705727 26.67974383 5.02061399 29.33984365 5 32 C3.02 32 1.04 32 -1 32 C-1 27.38 -1 22.76 -1 18 C-4.63 18 -8.26 18 -12 18 C-12 16.35 -12 14.7 -12 13 C-8.37 13 -4.74 13 -1 13 C-1.66 10.36 -2.32 7.72 -3 5 C-5.85078091 4.23283149 -5.85078091 4.23283149 -9 4 C-10.79234368 5.06145758 -10.79234368 5.06145758 -12 7 C-12.50545868 9.70484875 -12.50545868 9.70484875 -12.51171875 12.76171875 C-12.56489258 14.43911133 -12.56489258 14.43911133 -12.61914062 16.15039062 C-12.64169922 17.31763672 -12.66425781 18.48488281 -12.6875 19.6875 C-12.72166016 20.86634766 -12.75582031 22.04519531 -12.79101562 23.25976562 C-12.87357925 26.17308225 -12.94270322 29.08609466 -13 32 C-14.98 32 -16.96 32 -19 32 C-19.08776185 28.31265225 -19.14064603 24.62557653 -19.1875 20.9375 C-19.22520508 19.37999023 -19.22520508 19.37999023 -19.26367188 17.79101562 C-19.32152518 11.71641845 -18.99125263 7.3363366 -16 2 C-11.13009324 -2.71281299 -5.9807054 -2.50526469 0 0 Z " fill="#F4C52B" transform="translate(383,311)"/>
<path d="M0 0 C1.75155937 4.43728374 1.44318813 8.85793561 -0.0625 13.375 C0.411875 14.138125 0.88625 14.90125 1.375 15.6875 C3.27466954 18.95493162 3.48081997 20.64937734 2.9375 24.375 C1.13756226 27.07490662 -0.146273 28.9168865 -3.0625 30.375 C-4.93629605 30.44533769 -6.81251102 30.4593022 -8.6875 30.4375 C-9.69039062 30.42847656 -10.69328125 30.41945313 -11.7265625 30.41015625 C-12.49742187 30.39855469 -13.26828125 30.38695312 -14.0625 30.375 C-14.0625 29.055 -14.0625 27.735 -14.0625 26.375 C-10.7625 25.715 -7.4625 25.055 -4.0625 24.375 C-3.7325 23.055 -3.4025 21.735 -3.0625 20.375 C-4.68328662 17.20490528 -4.68328662 17.20490528 -7.2265625 16.86328125 C-8.03867188 16.80527344 -8.85078125 16.74726563 -9.6875 16.6875 C-10.50476563 16.62175781 -11.32203125 16.55601562 -12.1640625 16.48828125 C-12.79054687 16.45089844 -13.41703125 16.41351563 -14.0625 16.375 C-14.0625 14.725 -14.0625 13.075 -14.0625 11.375 C-12.94875 11.25125 -11.835 11.1275 -10.6875 11 C-7.03146323 10.7284187 -7.03146323 10.7284187 -5.0625 8.375 C-5.38291397 5.77219432 -5.38291397 5.77219432 -6.0625 3.375 C-8.41617713 2.6871764 -8.41617713 2.6871764 -11.0625 2.375 C-12.0525 3.035 -13.0425 3.695 -14.0625 4.375 C-14.573105 7.08504503 -14.573105 7.08504503 -14.57421875 10.2578125 C-14.60966797 11.42441406 -14.64511719 12.59101563 -14.68164062 13.79296875 C-14.70419922 15.01628906 -14.72675781 16.23960937 -14.75 17.5 C-14.78416016 18.73105469 -14.81832031 19.96210938 -14.85351562 21.23046875 C-14.93621564 24.2785551 -15.00529427 27.32634571 -15.0625 30.375 C-16.7125 30.375 -18.3625 30.375 -20.0625 30.375 C-20.20782035 25.81283535 -20.29658477 21.25126638 -20.375 16.6875 C-20.41689453 15.39392578 -20.45878906 14.10035156 -20.50195312 12.76757812 C-20.51806641 11.52041016 -20.53417969 10.27324219 -20.55078125 8.98828125 C-20.57696533 7.84141846 -20.60314941 6.69455566 -20.63012695 5.51293945 C-19.89044058 1.42382594 -18.21879404 -0.02314994 -15.0625 -2.625 C-10.22470354 -4.66638232 -4.02854928 -3.17400853 0 0 Z " fill="#F5C527" transform="translate(197.0625,312.625)"/>
<path d="M0 0 C0.7528125 0.12503906 1.505625 0.25007813 2.28125 0.37890625 C4.80723454 1.58408549 6.29272154 2.91226496 7.75 5.31323242 C9.48795603 10.23574396 8.8949504 15.66676065 8.75 20.8125 C8.73195313 22.02550781 8.71390625 23.23851562 8.6953125 24.48828125 C8.64832216 27.4721679 8.58263372 30.45442279 8.5 33.4375 C6.85 33.4375 5.2 33.4375 3.5 33.4375 C3.5 28.8175 3.5 24.1975 3.5 19.4375 C-0.46 19.4375 -4.42 19.4375 -8.5 19.4375 C-8.5 17.7875 -8.5 16.1375 -8.5 14.4375 C-4.54 14.4375 -0.58 14.4375 3.5 14.4375 C2.40213575 9.02962615 2.40213575 9.02962615 -1.5 5.4375 C-4.09117313 5.43906224 -4.09117313 5.43906224 -6.5 6.4375 C-8.53442164 9.53631129 -8.79219926 12.20347794 -8.9140625 15.859375 C-8.95273437 16.88417969 -8.99140625 17.90898437 -9.03125 18.96484375 C-9.0621875 20.02832031 -9.093125 21.09179688 -9.125 22.1875 C-9.18300781 23.80591797 -9.18300781 23.80591797 -9.2421875 25.45703125 C-9.33634631 28.11701775 -9.42197387 30.7769994 -9.5 33.4375 C-11.15 33.4375 -12.8 33.4375 -14.5 33.4375 C-14.55821935 29.54172976 -14.5936703 25.64607198 -14.625 21.75 C-14.64175781 20.64720703 -14.65851563 19.54441406 -14.67578125 18.40820312 C-14.68222656 17.34150391 -14.68867188 16.27480469 -14.6953125 15.17578125 C-14.70578613 14.19649658 -14.71625977 13.21721191 -14.72705078 12.20825195 C-14.39111835 8.10879267 -13.24945494 5.33684593 -10.625 2.1875 C-7.17715729 -0.65189988 -4.31254145 -0.81967825 0 0 Z " fill="#F4C529" transform="translate(280.5,309.5625)"/>
<path d="M0 0 C1.65 0 3.3 0 5 0 C5 4.62 5 9.24 5 14 C9.62 14 14.24 14 19 14 C19 9.38 19 4.76 19 0 C20.65 0 22.3 0 24 0 C24 10.89 24 21.78 24 33 C22.35 33 20.7 33 19 33 C19 28.38 19 23.76 19 19 C14.38 19 9.76 19 5 19 C5 23.62 5 28.24 5 33 C3.35 33 1.7 33 0 33 C0 22.11 0 11.22 0 0 Z " fill="#F5C52A" transform="translate(104,310)"/>
<path d="M0 0 C1.65 0 3.3 0 5 0 C5 4.62 5 9.24 5 14 C8.0613189 13.75509449 9.45339021 13.616411 12 12 C14.44759287 8.18791392 16.25728247 4.17486179 18 0 C19.98 0 21.96 0 24 0 C23.21012527 1.91740583 22.41802852 3.83389641 21.625 5.75 C21.18414062 6.81734375 20.74328125 7.8846875 20.2890625 8.984375 C19.26692415 11.37555926 18.19786405 13.69383183 17 16 C17.639375 16.268125 18.27875 16.53625 18.9375 16.8125 C21 18 21 18 22 21 C22.068991 23.06145107 22.08467727 25.12501401 22.0625 27.1875 C22.05347656 28.27417969 22.04445313 29.36085938 22.03515625 30.48046875 C22.02355469 31.31191406 22.01195313 32.14335937 22 33 C20.35 33 18.7 33 17 33 C16.93941406 32.22914063 16.87882812 31.45828125 16.81640625 30.6640625 C16.69072266 29.15972656 16.69072266 29.15972656 16.5625 27.625 C16.48128906 26.62726563 16.40007813 25.62953125 16.31640625 24.6015625 C16.15034374 22.02072387 16.15034374 22.02072387 15 20 C12.64400765 19.53248212 12.64400765 19.53248212 9.9375 19.375 C7.4934375 19.189375 7.4934375 19.189375 5 19 C5 23.62 5 28.24 5 33 C3.35 33 1.7 33 0 33 C0 22.11 0 11.22 0 0 Z " fill="#F4C528" transform="translate(11,310)"/>
<path d="M0 0 C1.27230469 0.00902344 2.54460937 0.01804687 3.85546875 0.02734375 C5.31919922 0.04474609 5.31919922 0.04474609 6.8125 0.0625 C6.8125 1.7125 6.8125 3.3625 6.8125 5.0625 C0.3775 5.5575 0.3775 5.5575 -6.1875 6.0625 C-6.5175 7.3825 -6.8475 8.7025 -7.1875 10.0625 C-6.35605469 10.53300781 -5.52460937 11.00351562 -4.66796875 11.48828125 C-3.58128906 12.11089844 -2.49460937 12.73351562 -1.375 13.375 C-0.29605469 13.98988281 0.78289062 14.60476563 1.89453125 15.23828125 C6.27419284 17.97630262 6.27419284 17.97630262 7.8125 20.0625 C8.24609375 22.18359375 8.24609375 22.18359375 8.25 24.5 C8.27900391 25.64275391 8.27900391 25.64275391 8.30859375 26.80859375 C7.58559952 30.09337854 6.59014552 31.15475277 3.8125 33.0625 C0.87747748 33.53930602 -1.97414877 33.44027302 -4.9375 33.3125 C-5.73027344 33.29445313 -6.52304688 33.27640625 -7.33984375 33.2578125 C-9.28958348 33.21083082 -11.23869878 33.13909044 -13.1875 33.0625 C-13.1875 31.7425 -13.1875 30.4225 -13.1875 29.0625 C-12.35605469 29.00191406 -11.52460937 28.94132812 -10.66796875 28.87890625 C-9.03794922 28.75322266 -9.03794922 28.75322266 -7.375 28.625 C-6.29605469 28.54378906 -5.21710938 28.46257812 -4.10546875 28.37890625 C-1.12760095 28.16037539 -1.12760095 28.16037539 1.8125 27.0625 C1.81489134 24.69496991 1.81489134 24.69496991 0.8125 22.0625 C-1.36357078 20.43922139 -3.32943676 19.1591682 -5.6875 17.875 C-12.08411863 14.26926275 -12.08411863 14.26926275 -13.1875 12.0625 C-13.64473173 5.8898717 -13.64473173 5.8898717 -11.875 2.6875 C-8.422377 -0.63724807 -4.52984214 -0.04155818 0 0 Z " fill="#F5C528" transform="translate(90.1875,309.9375)"/>
<path d="M0 0 C1.8871875 0.0309375 1.8871875 0.0309375 3.8125 0.0625 C3.8125 1.7125 3.8125 3.3625 3.8125 5.0625 C2.78189453 5.26166016 2.78189453 5.26166016 1.73046875 5.46484375 C0.37888672 5.72974609 0.37888672 5.72974609 -1 6 C-2.33998047 6.26103516 -2.33998047 6.26103516 -3.70703125 6.52734375 C-6.30147171 7.03991153 -6.30147171 7.03991153 -9.1875 8.0625 C-11.51471333 12.1045021 -12.01694999 16.50498445 -11.1875 21.0625 C-9.02476107 24.95543007 -7.86754137 26.52899068 -3.62890625 27.875 C-1.1495878 28.38141398 1.29864803 28.77938657 3.8125 29.0625 C3.8125 30.3825 3.8125 31.7025 3.8125 33.0625 C-5.87481919 33.68304002 -5.87481919 33.68304002 -10.625 31.4375 C-14.3856784 27.95199319 -16.86240565 25.47748657 -17.5703125 20.21875 C-17.74846164 15.42059977 -17.60097955 11.95307134 -15.5625 7.5625 C-11.06007061 2.82310064 -6.61225474 -0.10839762 0 0 Z " fill="#F6C627" transform="translate(356.1875,309.9375)"/>
<path d="M0 0 C6.93 0 13.86 0 21 0 C21 1.65 21 3.3 21 5 C18.36 5 15.72 5 13 5 C13 14.24 13 23.48 13 33 C11.35 33 9.7 33 8 33 C8 23.76 8 14.52 8 5 C5.36 5 2.72 5 0 5 C0 3.35 0 1.7 0 0 Z " fill="#F2C431" transform="translate(241,310)"/>
<path d="M0 0 C-4.28680031 13.58697726 -24.71759063 24.47839376 -36 32 C-38.0625 31.875 -38.0625 31.875 -40 31 C-41.12109375 28.9453125 -41.12109375 28.9453125 -42 27 C-41.05382812 26.50113281 -40.10765625 26.00226563 -39.1328125 25.48828125 C-26.86435106 18.87856526 -15.18313944 11.21221977 -4.6015625 2.109375 C-2 0 -2 0 0 0 Z " fill="#F4C629" transform="translate(227,156)"/>
<path d="M0 0 C1.65 0 3.3 0 5 0 C5 10.89 5 21.78 5 33 C3.35 33 1.7 33 0 33 C0 22.11 0 11.22 0 0 Z " fill="#F4C62B" transform="translate(327,310)"/>
<path d="M0 0 C2.98009552 1.39805916 5.56595042 3.02875224 8.22265625 4.96875 C9.00833984 5.53980469 9.79402344 6.11085937 10.60351562 6.69921875 C11.82071289 7.59060547 11.82071289 7.59060547 13.0625 8.5 C14.67807093 9.67751494 16.29394393 10.85461556 17.91015625 12.03125 C18.97955444 12.81338867 18.97955444 12.81338867 20.07055664 13.61132812 C21.68892479 14.77611087 23.34093379 15.89395586 25 17 C24.67 18.32 24.34 19.64 24 21 C20.49006481 20.38992097 18.44541646 19.03156955 15.6875 16.8125 C14.511875 15.86697266 14.511875 15.86697266 13.3125 14.90234375 C12.549375 14.27457031 11.78625 13.64679688 11 13 C10.34 12.46503906 9.68 11.93007812 9 11.37890625 C5.56822545 8.5314209 2.56322793 5.69104822 0 2 C0 1.34 0 0.68 0 0 Z " fill="#F3C52A" transform="translate(171,154)"/>
<path d="M0 0 C0.33 0 0.66 0 1 0 C1 9.57 1 19.14 1 29 C-0.32 29 -1.64 29 -3 29 C-3.08756305 25.29181703 -3.14058015 21.58390237 -3.1875 17.875 C-3.21263672 16.82828125 -3.23777344 15.7815625 -3.26367188 14.703125 C-3.31833491 8.94528536 -3.20676341 4.86485368 0 0 Z " fill="#F8C51D" transform="translate(252,314)"/>
<path d="M0 0 C0 8.25 0 16.5 0 25 C-1.32 25 -2.64 25 -4 25 C-4.08701039 21.39598519 -4.14039388 17.79223988 -4.1875 14.1875 C-4.21263672 13.16333984 -4.23777344 12.13917969 -4.26367188 11.08398438 C-4.27333984 10.10107422 -4.28300781 9.11816406 -4.29296875 8.10546875 C-4.3086792 7.19949951 -4.32438965 6.29353027 -4.34057617 5.36010742 C-3.99243665 2.94758791 -2.92262078 0 0 0 Z " fill="#F9C61E" transform="translate(271,318)"/>
<path d="M0 0 C0.33 0 0.66 0 1 0 C1 7.26 1 14.52 1 22 C-0.32 22 -1.64 22 -3 22 C-3 15.07 -3 8.14 -3 1 C-2.67 1.66 -2.34 2.32 -2 3 C-1.34 3 -0.68 3 0 3 C0 2.01 0 1.02 0 0 Z " fill="#F7C720" transform="translate(298,321)"/>
<path d="M0 0 C2 3 2 3 1.57421875 5.41015625 C1.28160156 6.28542969 0.98898438 7.16070312 0.6875 8.0625 C0.40261719 8.94035156 0.11773437 9.81820312 -0.17578125 10.72265625 C-1 13 -1 13 -2 15 C3.61 15.33 9.22 15.66 15 16 C15 16.33 15 16.66 15 17 C9.06 17 3.12 17 -3 17 C-3 9.125 -3 9.125 -1.5 4.5625 C-1.2215625 3.69753906 -0.943125 2.83257812 -0.65625 1.94140625 C-0.33140625 0.98041016 -0.33140625 0.98041016 0 0 Z " fill="#EEC53F" transform="translate(236,135)"/>
<path d="M0 0 C0.66 0 1.32 0 2 0 C2 1.32 2 2.64 2 4 C2.99 4 3.98 4 5 4 C5.33 2.68 5.66 1.36 6 0 C6 2.97 6 5.94 6 9 C5.01 9 4.02 9 3 9 C1.68 6.36 0.36 3.72 -1 1 C-0.67 0.67 -0.34 0.34 0 0 Z " fill="#EDC832" transform="translate(92,330)"/>
<path d="M0 0 C0 0.66 0 1.32 0 2 C0.66 2.33 1.32 2.66 2 3 C-1.3 2.67 -4.6 2.34 -8 2 C-7.62875 3.27875 -7.2575 4.5575 -6.875 5.875 C-6.2421875 8.0546875 -6.2421875 8.0546875 -6 10 C-6.66 10.66 -7.32 11.32 -8 12 C-9.17571451 8.32589215 -9.07366746 4.83070817 -9 1 C-5.94152152 0.45627049 -3.11227195 0 0 0 Z " fill="#EEC435" transform="translate(242,217)"/>
<path d="M0 0 C3.875 0.875 3.875 0.875 5 2 C5.04063832 3.66617115 5.042721 5.33388095 5 7 C4.01 7 3.02 7 2 7 C2 5.68 2 4.36 2 3 C1.01 3.33 0.02 3.66 -1 4 C-0.67 2.68 -0.34 1.36 0 0 Z " fill="#F9C61E" transform="translate(92,327)"/>
<path d="M0 0 C1.89213369 2.38573379 3.02391783 4.07175348 4 7 C1.69 7 -0.62 7 -3 7 C-2.67 5.68 -2.34 4.36 -2 3 C-1.34 3 -0.68 3 0 3 C0 2.01 0 1.02 0 0 Z " fill="#F3C532" transform="translate(309,324)"/>
<path d="M0 0 C0.66 0 1.32 0 2 0 C2.33 1.98 2.66 3.96 3 6 C1.68 6.33 0.36 6.66 -1 7 C-1.04254356 5.00045254 -1.04080783 2.99958364 -1 1 C-0.67 0.67 -0.34 0.34 0 0 Z " fill="#F8C51A" transform="translate(40,326)"/>
<path d="M0 0 C0.66 0.99 1.32 1.98 2 3 C0.02 5.31 -1.96 7.62 -4 10 C-4.99 9.67 -5.98 9.34 -7 9 C-6.67 8.01 -6.34 7.02 -6 6 C-6 6.66 -6 7.32 -6 8 C-3.33264727 5.51047079 -1.44253657 3.36591866 0 0 Z " fill="#F1C53A" transform="translate(206,146)"/>
<path d="M0 0 C4.875 0.875 4.875 0.875 6 2 C6.04063832 3.66617115 6.042721 5.33388095 6 7 C5.34 7 4.68 7 4 7 C2.02 3.535 2.02 3.535 0 0 Z " fill="#FDC223" transform="translate(164,175)"/>
<path d="M0 0 C0.99 0.33 1.98 0.66 3 1 C3.33 3.97 3.66 6.94 4 10 C2.35 8.68 0.7 7.36 -1 6 C-0.34 6 0.32 6 1 6 C0.67 4.02 0.34 2.04 0 0 Z " fill="#EDC630" transform="translate(145,113)"/>
<path d="M0 0 C0.66 0 1.32 0 2 0 C2 0.66 2 1.32 2 2 C2.66 2 3.32 2 4 2 C4 2.99 4 3.98 4 5 C2.35 5 0.7 5 -1 5 C-0.67 3.35 -0.34 1.7 0 0 Z " fill="#F6C919" transform="translate(252,202)"/>
<path d="M0 0 C1.32 1.65 2.64 3.3 4 5 C2.02 5 0.04 5 -2 5 C-2 4.34 -2 3.68 -2 3 C-2.99 2.34 -3.98 1.68 -5 1 C-3.35 0.67 -1.7 0.34 0 0 Z " fill="#EDC537" transform="translate(54,309)"/>
<path d="M0 0 C0 0.33 0 0.66 0 1 C-8.42857143 2.28571429 -8.42857143 2.28571429 -13 1 C-13 0.67 -13 0.34 -13 0 C-8.38926889 -1.29676812 -4.66159911 -0.71109139 0 0 Z " fill="#F1C23D" transform="translate(227,310)"/>
<path d="M0 0 C2.29633824 3.44450737 2.54016485 5.93812283 3 10 C2.34 9.67 1.68 9.34 1 9 C1 8.01 1 7.02 1 6 C0.34 6 -0.32 6 -1 6 C-0.67 4.02 -0.34 2.04 0 0 Z " fill="#F3C534" transform="translate(219,74)"/>
<path d="M0 0 C1.32 0.66 2.64 1.32 4 2 C2.02 3.32 0.04 4.64 -2 6 C-1.125 1.125 -1.125 1.125 0 0 Z " fill="#EBC730" transform="translate(212,314)"/>
<path d="M0 0 C0.66 0 1.32 0 2 0 C1.34 3.3 0.68 6.6 0 10 C-0.33 10 -0.66 10 -1 10 C-1.9765625 3.9453125 -1.9765625 3.9453125 -2 2 C-1.34 1.34 -0.68 0.68 0 0 Z " fill="#EEC82F" transform="translate(140,314)"/>
<path d="M0 0 C0.66 0 1.32 0 2 0 C2.33 1.32 2.66 2.64 3 4 C2.01 4.66 1.02 5.32 0 6 C0 5.34 0 4.68 0 4 C-0.66 4 -1.32 4 -2 4 C-1.34 2.68 -0.68 1.36 0 0 Z " fill="#F9C719" transform="translate(152,245)"/>
<path d="M0 0 C0.66 1.32 1.32 2.64 2 4 C0.35 4.66 -1.3 5.32 -3 6 C-2.42655063 3.13275314 -2.1385485 2.1385485 0 0 Z " fill="#F1CA1C" transform="translate(231,182)"/>
</svg>
